# Blender v2.90.0 OBJ File: 'props.blend'
# www.blender.org
o Pebble1_Icosphere
v 0.000000 -0.242416 0.000000
v 0.676216 -0.191958 0.491296
v -0.243806 -0.154902 0.750372
v -0.907186 -0.248369 0.000000
v -0.259163 -0.194202 -0.797637
v 0.662112 -0.178173 -0.481050
v 0.242209 0.150816 0.745458
v -0.819007 0.331528 0.595032
v -0.644942 0.161390 -0.468575
v 0.238294 0.140796 -0.733407
v 0.939534 0.273949 0.000000
v 0.000000 0.633380 0.000000
v -0.138819 -0.239945 0.427247
v 0.377293 -0.287696 0.274115
v 0.232479 -0.184923 0.715473
v 0.824019 -0.254342 0.000000
v 0.366153 -0.249304 -0.266021
v -0.458541 -0.265895 0.000000
v -0.745742 -0.348968 0.541811
v -0.153895 -0.375982 -0.473646
v -0.591179 -0.164057 -0.429516
v 0.215042 -0.130304 -0.661803
v 1.007649 0.000000 0.327399
v 0.929590 0.000000 -0.302038
v 0.000000 0.000000 0.921878
v 0.598316 0.000000 0.823511
v -1.105821 0.000000 0.359296
v -0.572531 0.000000 0.788019
v -0.490189 0.000000 -0.674680
v -0.901984 0.000000 -0.293068
v 0.503018 0.000000 -0.692339
v 0.000000 0.000000 -0.826705
v 0.672559 0.261416 0.488641
v -0.254278 0.253206 0.782570
v -0.964572 0.390376 0.000000
v -0.235286 0.193717 -0.724114
v 0.694048 0.287124 -0.504254
v 0.164101 0.468077 0.505058
v 0.527995 0.459547 0.000000
v -0.458465 0.567457 0.333091
v -0.437736 0.496015 -0.318030
v 0.154119 0.378009 -0.474338
vn 0.0156 -0.9965 0.0825
vn 0.0339 -0.9950 0.0938
vn 0.0505 -0.9907 0.1263
vn 0.3896 -0.8406 0.3763
vn 0.5128 -0.8568 -0.0532
vn -0.0365 -0.9979 -0.0528
vn -0.0239 -0.9805 -0.1952
vn 0.0957 -0.9854 -0.1408
vn 0.9320 -0.0996 0.3486
vn -0.0393 -0.7907 0.6109
vn 0.0782 -0.8664 0.4932
vn 0.0409 -0.0847 0.9955
vn -0.5733 -0.7803 -0.2497
vn -0.3386 -0.8370 0.4298
vn -0.9564 -0.1131 0.2692
vn -0.2363 -0.4847 -0.8421
vn -0.4897 -0.7628 -0.4223
vn -0.5943 0.0092 -0.8042
vn 0.4232 -0.7330 -0.5325
vn 0.2398 -0.7533 -0.6124
vn 0.4085 -0.1727 -0.8962
vn 0.4617 -0.0354 0.8863
vn -0.3522 -0.1109 0.9293
vn -0.7985 -0.1408 -0.5852
vn 0.0936 -0.0121 -0.9955
vn 0.8885 -0.1582 -0.4307
vn 0.1834 0.6567 0.7314
vn 0.4781 0.7347 0.4812
vn 0.2065 0.8376 0.5057
vn -0.5417 0.5542 0.6320
vn -0.0719 0.5830 0.8092
vn -0.1791 0.9488 0.2602
vn -0.5759 0.4450 -0.6857
vn -0.7414 0.6365 -0.2127
vn -0.2633 0.8460 -0.4635
vn 0.1751 0.5011 -0.8475
vn -0.2090 0.5317 -0.8207
vn 0.1092 0.8458 -0.5222
vn 0.7828 0.6218 -0.0228
vn 0.5145 0.6104 -0.6022
vn 0.3371 0.9412 -0.0206
vn 0.1033 0.9903 -0.0929
s 1
f 1//1 14//2 13//3
f 2//4 14//2 16//5
f 1//1 13//3 18//6
f 1//1 18//6 20//7
f 1//1 20//7 17//8
f 2//4 16//5 23//9
f 3//10 15//11 25//12
f 4//13 19//14 27//15
f 5//16 21//17 29//18
f 6//19 22//20 31//21
f 2//4 23//9 26//22
f 3//10 25//12 28//23
f 4//13 27//15 30//24
f 5//16 29//18 32//25
f 6//19 31//21 24//26
f 7//27 33//28 38//29
f 8//30 34//31 40//32
f 9//33 35//34 41//35
f 10//36 36//37 42//38
f 11//39 37//40 39//41
f 39//41 42//38 12//42
f 39//41 37//40 42//38
f 37//40 10//36 42//38
f 42//38 41//35 12//42
f 42//38 36//37 41//35
f 36//37 9//33 41//35
f 41//35 40//32 12//42
f 41//35 35//34 40//32
f 35//34 8//30 40//32
f 40//32 38//29 12//42
f 40//32 34//31 38//29
f 34//31 7//27 38//29
f 38//29 39//41 12//42
f 38//29 33//28 39//41
f 33//28 11//39 39//41
f 24//26 37//40 11//39
f 24//26 31//21 37//40
f 31//21 10//36 37//40
f 32//25 36//37 10//36
f 32//25 29//18 36//37
f 29//18 9//33 36//37
f 30//24 35//34 9//33
f 30//24 27//15 35//34
f 27//15 8//30 35//34
f 28//23 34//31 8//30
f 28//23 25//12 34//31
f 25//12 7//27 34//31
f 26//22 33//28 7//27
f 26//22 23//9 33//28
f 23//9 11//39 33//28
f 31//21 32//25 10//36
f 31//21 22//20 32//25
f 22//20 5//16 32//25
f 29//18 30//24 9//33
f 29//18 21//17 30//24
f 21//17 4//13 30//24
f 27//15 28//23 8//30
f 27//15 19//14 28//23
f 19//14 3//10 28//23
f 25//12 26//22 7//27
f 25//12 15//11 26//22
f 15//11 2//4 26//22
f 23//9 24//26 11//39
f 23//9 16//5 24//26
f 16//5 6//19 24//26
f 17//8 22//20 6//19
f 17//8 20//7 22//20
f 20//7 5//16 22//20
f 20//7 21//17 5//16
f 20//7 18//6 21//17
f 18//6 4//13 21//17
f 18//6 19//14 4//13
f 18//6 13//3 19//14
f 13//3 3//10 19//14
f 16//5 17//8 6//19
f 16//5 14//2 17//8
f 14//2 1//1 17//8
f 13//3 15//11 3//10
f 13//3 14//2 15//11
f 14//2 2//4 15//11
