# Blender v2.90.0 OBJ File: 'props.blend'
# www.blender.org
o Pebble3_Icosphere.002
v -0.000083 -0.389405 -4.000000
v 0.744904 -0.186455 -3.636668
v -0.314094 -0.278238 -3.286197
v -0.913830 -0.180574 -4.000000
v -0.286347 -0.191743 -4.595514
v 0.731367 -0.170713 -4.349798
v 0.303257 0.244455 -3.332398
v -0.722312 0.160183 -3.659255
v -0.663223 0.091470 -4.281669
v 0.294818 0.218149 -4.631626
v 0.966765 0.229022 -4.000000
v -0.000041 0.486057 -4.000000
v -0.159365 -0.264474 -3.689261
v 0.450527 -0.404112 -3.773648
v 0.286437 -0.280052 -3.372902
v 1.036891 -0.400302 -4.000000
v 0.432200 -0.327707 -4.207557
v -0.560847 -0.417536 -4.000000
v -0.769200 -0.306010 -3.593213
v -0.156594 -0.234023 -4.298636
v -0.842793 -0.410995 -4.481135
v 0.276154 -0.240108 -4.582637
v 1.188174 -0.001060 -3.696890
v 0.955634 0.000236 -4.203971
v -0.000000 0.000000 -3.260813
v 0.568134 -0.000521 -3.510000
v -0.968617 -0.000164 -3.790494
v -0.569394 0.000507 -3.507636
v -0.673651 -0.000609 -4.687965
v -0.944553 -0.000298 -4.199246
v 0.622322 0.000059 -4.591664
v -0.000000 0.000000 -4.662439
v 0.721919 0.238562 -3.640979
v -0.295175 0.313991 -3.335125
v -0.890318 0.236308 -4.000000
v -0.273148 0.228433 -4.569643
v 0.826715 0.388059 -4.464892
v 0.178205 0.471513 -3.606973
v 0.554063 0.394612 -4.000000
v -0.471244 0.490481 -3.752401
v -0.423448 0.291219 -4.198581
v 0.167373 0.352478 -4.345716
vn -0.0412 -0.9959 -0.0802
vn 0.0831 -0.9755 0.2037
vn -0.0156 -0.9816 0.1901
vn 0.3516 -0.5546 0.7542
vn 0.6356 -0.7626 -0.1199
vn -0.0958 -0.9932 0.0657
vn 0.0529 -0.9577 -0.2829
vn 0.0589 -0.9490 -0.3098
vn 0.8834 0.0910 0.4598
vn -0.2459 -0.5669 0.7862
vn 0.2466 -0.6319 0.7348
vn 0.0373 0.0057 0.9993
vn -0.8542 -0.5167 0.0579
vn -0.5606 -0.6182 0.5510
vn -0.9161 0.0999 0.3883
vn 0.0865 -0.7177 -0.6909
vn -0.5325 -0.7179 -0.4484
vn -0.4391 0.3027 -0.8459
vn 0.4772 -0.6122 -0.6304
vn 0.0978 -0.7301 -0.6763
vn 0.4406 -0.2372 -0.8658
vn 0.4557 -0.0252 0.8898
vn -0.5456 0.1339 0.8273
vn -0.9008 0.2911 -0.3222
vn 0.0018 -0.0284 -0.9996
vn 0.8515 -0.0494 -0.5220
vn 0.3458 0.3757 0.8598
vn 0.4399 0.6818 0.5844
vn 0.1687 0.9356 0.3100
vn -0.6342 0.4347 0.6394
vn -0.3057 0.4806 0.8219
vn -0.3653 0.9234 0.1179
vn -0.4146 0.8135 -0.4077
vn -0.7008 0.6995 -0.1398
vn -0.3142 0.8559 -0.4107
vn 0.0234 0.4986 -0.8665
vn -0.1845 0.7704 -0.6102
vn -0.0554 0.9390 -0.3395
vn 0.7233 0.6903 -0.0153
vn 0.5538 0.6517 -0.5181
vn 0.2353 0.9698 0.0636
vn -0.0177 0.9735 -0.2281
s 1
f 1//1 14//2 13//3
f 2//4 14//2 16//5
f 1//1 13//3 18//6
f 1//1 18//6 20//7
f 1//1 20//7 17//8
f 2//4 16//5 23//9
f 3//10 15//11 25//12
f 4//13 19//14 27//15
f 5//16 21//17 29//18
f 6//19 22//20 31//21
f 2//4 23//9 26//22
f 3//10 25//12 28//23
f 4//13 27//15 30//24
f 5//16 29//18 32//25
f 6//19 31//21 24//26
f 7//27 33//28 38//29
f 8//30 34//31 40//32
f 9//33 35//34 41//35
f 10//36 36//37 42//38
f 11//39 37//40 39//41
f 39//41 42//38 12//42
f 39//41 37//40 42//38
f 37//40 10//36 42//38
f 42//38 41//35 12//42
f 42//38 36//37 41//35
f 36//37 9//33 41//35
f 41//35 40//32 12//42
f 41//35 35//34 40//32
f 35//34 8//30 40//32
f 40//32 38//29 12//42
f 40//32 34//31 38//29
f 34//31 7//27 38//29
f 38//29 39//41 12//42
f 38//29 33//28 39//41
f 33//28 11//39 39//41
f 24//26 37//40 11//39
f 24//26 31//21 37//40
f 31//21 10//36 37//40
f 32//25 36//37 10//36
f 32//25 29//18 36//37
f 29//18 9//33 36//37
f 30//24 35//34 9//33
f 30//24 27//15 35//34
f 27//15 8//30 35//34
f 28//23 34//31 8//30
f 28//23 25//12 34//31
f 25//12 7//27 34//31
f 26//22 33//28 7//27
f 26//22 23//9 33//28
f 23//9 11//39 33//28
f 31//21 32//25 10//36
f 31//21 22//20 32//25
f 22//20 5//16 32//25
f 29//18 30//24 9//33
f 29//18 21//17 30//24
f 21//17 4//13 30//24
f 27//15 28//23 8//30
f 27//15 19//14 28//23
f 19//14 3//10 28//23
f 25//12 26//22 7//27
f 25//12 15//11 26//22
f 15//11 2//4 26//22
f 23//9 24//26 11//39
f 23//9 16//5 24//26
f 16//5 6//19 24//26
f 17//8 22//20 6//19
f 17//8 20//7 22//20
f 20//7 5//16 22//20
f 20//7 21//17 5//16
f 20//7 18//6 21//17
f 18//6 4//13 21//17
f 18//6 19//14 4//13
f 18//6 13//3 19//14
f 13//3 3//10 19//14
f 16//5 17//8 6//19
f 16//5 14//2 17//8
f 14//2 1//1 17//8
f 13//3 15//11 3//10
f 13//3 14//2 15//11
f 14//2 2//4 15//11
