# Blender v2.90.0 OBJ File: 'vfx_jet.blend'
# www.blender.org
o Cylinder
v 0.000000 0.279909 -1.000000
v 0.000000 1.000000 0.000000
v 0.054608 0.274530 -1.000000
v 0.195090 0.980785 0.000000
v 0.107116 0.258602 -1.000000
v 0.382683 0.923879 0.000000
v 0.155509 0.232736 -1.000000
v 0.555570 0.831470 0.000000
v 0.197925 0.197925 -1.000000
v 0.707107 0.707107 0.000000
v 0.232735 0.155509 -1.000000
v 0.831470 0.555570 0.000000
v 0.258602 0.107117 -1.000000
v 0.923880 0.382683 0.000000
v 0.274530 0.054608 -1.000000
v 0.980785 0.195090 0.000000
v 0.279909 0.000000 -1.000000
v 1.000000 0.000000 0.000000
v 0.274530 -0.054607 -1.000000
v 0.980785 -0.195090 -0.000000
v 0.258602 -0.107116 -1.000000
v 0.923880 -0.382683 -0.000000
v 0.232735 -0.155509 -1.000000
v 0.831470 -0.555570 -0.000000
v 0.197925 -0.197925 -1.000000
v 0.707107 -0.707107 -0.000000
v 0.155509 -0.232735 -1.000000
v 0.555570 -0.831470 -0.000000
v 0.107116 -0.258601 -1.000000
v 0.382683 -0.923880 -0.000000
v 0.054607 -0.274530 -1.000000
v 0.195090 -0.980785 -0.000000
v -0.000000 -0.279908 -1.000000
v -0.000000 -1.000000 -0.000000
v -0.054607 -0.274530 -1.000000
v -0.195091 -0.980785 -0.000000
v -0.107116 -0.258601 -1.000000
v -0.382684 -0.923879 -0.000000
v -0.155509 -0.232735 -1.000000
v -0.555571 -0.831469 -0.000000
v -0.197925 -0.197925 -1.000000
v -0.707107 -0.707106 -0.000000
v -0.232735 -0.155508 -1.000000
v -0.831470 -0.555570 -0.000000
v -0.258602 -0.107116 -1.000000
v -0.923880 -0.382683 -0.000000
v -0.274530 -0.054607 -1.000000
v -0.980785 -0.195090 -0.000000
v -0.279908 0.000001 -1.000000
v -1.000000 0.000001 0.000000
v -0.274530 0.054608 -1.000000
v -0.980785 0.195091 0.000000
v -0.258601 0.107117 -1.000000
v -0.923879 0.382684 0.000000
v -0.232735 0.155509 -1.000000
v -0.831469 0.555571 0.000000
v -0.197925 0.197926 -1.000000
v -0.707106 0.707108 0.000000
v -0.155508 0.232736 -1.000000
v -0.555569 0.831470 0.000000
v -0.107116 0.258602 -1.000000
v -0.382682 0.923880 0.000000
v -0.054607 0.274530 -1.000000
v -0.195089 0.980785 0.000000
v -0.000000 -0.000000 -0.000000
vt 1.000000 1.000000
vt 0.000000 1.000000
vt 0.000000 0.968750
vt 1.000000 0.968750
vt 0.000000 0.937500
vt 1.000000 0.937500
vt 0.000000 0.906250
vt 1.000000 0.906250
vt 0.000000 0.875000
vt 1.000000 0.875000
vt 0.000000 0.843750
vt 1.000000 0.843750
vt 0.000000 0.812500
vt 1.000000 0.812500
vt 0.000000 0.781250
vt 1.000000 0.781250
vt 0.000000 0.750000
vt 1.000000 0.750000
vt 0.000000 0.718750
vt 1.000000 0.718750
vt 0.000000 0.687500
vt 1.000000 0.687500
vt 0.000000 0.656250
vt 1.000000 0.656250
vt 0.000000 0.625000
vt 1.000000 0.625000
vt 0.000000 0.593750
vt 1.000000 0.593750
vt 0.000000 0.562500
vt 1.000000 0.562500
vt 0.000000 0.531250
vt 1.000000 0.531250
vt 0.000000 0.500000
vt 1.000000 0.500000
vt 0.000000 0.468750
vt 1.000000 0.468750
vt 0.000000 0.437500
vt 1.000000 0.437500
vt 0.000000 0.406250
vt 1.000000 0.406250
vt 0.000000 0.375000
vt 1.000000 0.375000
vt 0.000000 0.343750
vt 1.000000 0.343750
vt 0.000000 0.312500
vt 1.000000 0.312500
vt 0.000000 0.281250
vt 1.000000 0.281250
vt 0.000000 0.250000
vt 1.000000 0.250000
vt 0.000000 0.218750
vt 1.000000 0.218750
vt 0.000000 0.187500
vt 1.000000 0.187500
vt 0.000000 0.156250
vt 1.000000 0.156250
vt 0.000000 0.125000
vt 1.000000 0.125000
vt 0.000000 0.093750
vt 1.000000 0.093750
vt 0.000000 0.062500
vt 1.000000 0.062500
vt 0.000000 0.031250
vt 1.000000 0.031250
vt 0.000000 0.000000
vt 1.000000 0.000000
vt 0.021372 0.513219
vt 0.018743 0.513478
vt 0.800738 0.503100
vt 0.016113 0.513219
vt 0.013585 0.512452
vt 0.011255 0.511206
vt 0.009212 0.509530
vt 0.007536 0.507488
vt 0.006291 0.505158
vt 0.005524 0.502629
vt 0.005265 0.500000
vt 0.005524 0.497371
vt 0.006291 0.494842
vt 0.007536 0.492512
vt 0.009212 0.490470
vt 0.011255 0.488794
vt 0.013585 0.487548
vt 0.016113 0.486781
vt 0.018743 0.486522
vt 0.021372 0.486781
vt 0.023900 0.487548
vt 0.026230 0.488794
vt 0.028273 0.490470
vt 0.029949 0.492512
vt 0.031194 0.494842
vt 0.031961 0.497371
vt 0.032220 0.500000
vt 0.031961 0.502629
vt 0.031194 0.505158
vt 0.029949 0.507488
vt 0.028273 0.509530
vt 0.026230 0.511206
vt 0.023900 0.512452
vn 0.0000 0.8115 -0.5844
vn 0.1583 0.7959 -0.5844
vn 0.3105 0.7497 -0.5844
vn 0.4508 0.6747 -0.5844
vn 0.5738 0.5738 -0.5844
vn 0.6747 0.4508 -0.5844
vn 0.7497 0.3105 -0.5844
vn 0.7959 0.1583 -0.5844
vn 0.8115 0.0000 -0.5844
vn 0.7959 -0.1583 -0.5844
vn 0.7497 -0.3105 -0.5844
vn 0.6747 -0.4508 -0.5844
vn 0.5738 -0.5738 -0.5844
vn 0.4508 -0.6747 -0.5844
vn 0.3105 -0.7497 -0.5844
vn 0.1583 -0.7959 -0.5844
vn -0.0000 -0.8115 -0.5844
vn -0.1583 -0.7959 -0.5844
vn -0.3105 -0.7497 -0.5844
vn -0.4508 -0.6747 -0.5844
vn -0.5738 -0.5738 -0.5844
vn -0.6747 -0.4508 -0.5844
vn -0.7497 -0.3105 -0.5844
vn -0.7959 -0.1583 -0.5844
vn -0.8115 0.0000 -0.5844
vn -0.7959 0.1583 -0.5844
vn -0.7497 0.3105 -0.5844
vn -0.6747 0.4508 -0.5844
vn -0.5738 0.5738 -0.5844
vn -0.4508 0.6747 -0.5844
vn -0.3105 0.7497 -0.5844
vn -0.1583 0.7959 -0.5844
vn 0.0000 -0.0000 1.0000
s 1
f 1/1/1 2/2/1 4/3/2 3/4/2
f 3/4/2 4/3/2 6/5/3 5/6/3
f 5/6/3 6/5/3 8/7/4 7/8/4
f 7/8/4 8/7/4 10/9/5 9/10/5
f 9/10/5 10/9/5 12/11/6 11/12/6
f 11/12/6 12/11/6 14/13/7 13/14/7
f 13/14/7 14/13/7 16/15/8 15/16/8
f 15/16/8 16/15/8 18/17/9 17/18/9
f 17/18/9 18/17/9 20/19/10 19/20/10
f 19/20/10 20/19/10 22/21/11 21/22/11
f 21/22/11 22/21/11 24/23/12 23/24/12
f 23/24/12 24/23/12 26/25/13 25/26/13
f 25/26/13 26/25/13 28/27/14 27/28/14
f 27/28/14 28/27/14 30/29/15 29/30/15
f 29/30/15 30/29/15 32/31/16 31/32/16
f 31/32/16 32/31/16 34/33/17 33/34/17
f 33/34/17 34/33/17 36/35/18 35/36/18
f 35/36/18 36/35/18 38/37/19 37/38/19
f 37/38/19 38/37/19 40/39/20 39/40/20
f 39/40/20 40/39/20 42/41/21 41/42/21
f 41/42/21 42/41/21 44/43/22 43/44/22
f 43/44/22 44/43/22 46/45/23 45/46/23
f 45/46/23 46/45/23 48/47/24 47/48/24
f 47/48/24 48/47/24 50/49/25 49/50/25
f 49/50/25 50/49/25 52/51/26 51/52/26
f 51/52/26 52/51/26 54/53/27 53/54/27
f 53/54/27 54/53/27 56/55/28 55/56/28
f 55/56/28 56/55/28 58/57/29 57/58/29
f 57/58/29 58/57/29 60/59/30 59/60/30
f 59/60/30 60/59/30 62/61/31 61/62/31
f 61/62/31 62/61/31 64/63/32 63/64/32
f 63/64/32 64/63/32 2/65/1 1/66/1
f 4/67/33 2/68/33 65/69/33
f 2/68/33 64/70/33 65/69/33
f 64/70/33 62/71/33 65/69/33
f 62/71/33 60/72/33 65/69/33
f 60/72/33 58/73/33 65/69/33
f 58/73/33 56/74/33 65/69/33
f 56/74/33 54/75/33 65/69/33
f 54/75/33 52/76/33 65/69/33
f 52/76/33 50/77/33 65/69/33
f 50/77/33 48/78/33 65/69/33
f 48/78/33 46/79/33 65/69/33
f 46/79/33 44/80/33 65/69/33
f 44/80/33 42/81/33 65/69/33
f 42/81/33 40/82/33 65/69/33
f 40/82/33 38/83/33 65/69/33
f 38/83/33 36/84/33 65/69/33
f 36/84/33 34/85/33 65/69/33
f 34/85/33 32/86/33 65/69/33
f 32/86/33 30/87/33 65/69/33
f 30/87/33 28/88/33 65/69/33
f 28/88/33 26/89/33 65/69/33
f 26/89/33 24/90/33 65/69/33
f 24/90/33 22/91/33 65/69/33
f 22/91/33 20/92/33 65/69/33
f 20/92/33 18/93/33 65/69/33
f 18/93/33 16/94/33 65/69/33
f 16/94/33 14/95/33 65/69/33
f 14/95/33 12/96/33 65/69/33
f 12/96/33 10/97/33 65/69/33
f 10/97/33 8/98/33 65/69/33
f 8/98/33 6/99/33 65/69/33
f 6/99/33 4/67/33 65/69/33
